<svg width="514" height="372" viewBox="0 0 514 372" fill="none" xmlns="http://www.w3.org/2000/svg">
<path d="M328.799 368.253C288.837 377.633 278.253 325.203 239.552 325.568C188.917 326.047 133.052 379.693 86.4756 370.542C39.2029 361.253 15.2422 319.998 5.50809 279.581C-5.02004 235.868 -1.20473 184 30.4656 137.984C61.7635 92.5083 117.698 58.4045 173.06 36.1307C222.117 16.3942 269.412 27.0318 319.186 21.8241C367.305 16.7895 422.52 -9.99849 460.782 6.0271C499.11 22.0802 513.054 63.4174 513.211 103.089C513.35 138.178 481.979 173.271 461.584 208.685C446 235.744 428.854 260.804 407.831 286.068C383.467 315.347 366.92 359.305 328.799 368.253Z" fill="#484C9A"/>
</svg>
